PERCY JACKSON AND THE OLYMPIANS THE LIGHTINING THIEF R5 H264 

Format                           : AVI
Format/Info                      : Audio Video Interleave
File size                        : 709 MiB
Duration                         : 1h 53mn
Overall bit rate                 : 435 Kbps
Writing application              : MEncoder SVN-r29352(20090610-gcc4.3.3)
Writing library                  : MPlayer

Video
ID                               : 0
Format                           : AVC
Format/Info                      : Advanced Video Codec
Format profile                   : Baseline@L2.1
Format settings, CABAC           : No
Format settings, ReFrames        : 1 frame
Codec ID                         : avc1
Duration                         : 1h 53mn
Bit rate                         : 763 Kbps
Nominal bit rate                 : 768 Kbps
Width                            : 640 pixels
Height                           : 360 pixels
Display aspect ratio             : 16:9
Frame rate                       : 25.000 fps
Resolution                       : 24 bits
Colorimetry                      : 4:2:0
Scan type                        : Progressive
Bits/(Pixel*Frame)               : 0.132
Stream size                      : 620 MiB (88%)
Writing library                  : x264 core 67 r1163+17 7d945df
Encoding settings                : cabac=0 / ref=1 / deblock=1:0:0 / 

Audio
ID                               : 1
Format                           : MPEG Audio
Format version                   : Version 2
Format profile                   : Layer 3
Codec ID                         : 55
Codec ID/Hint                    : MP3
Duration                         : 1h 53mn
Bit rate mode                    : Constant
Bit rate                         : 96.0 Kbps
Channel(s)                       : 2 channels
Sampling rate                    : 22.05 KHz
Resolution                       : 16 bits
Stream size                      : 78.1 MiB (11%)
Alignment                        : Aligned on interleaves
Interleave, duration             : 26 ms (0.65 video frame)
Interleave, preload duration     : 522 ms
Writing library                  : LAME3.98

The movie opens with Poseidon (Kevin McKidd) meets up with Zeus (Sean Bean) on the top of the empire state building. Zeus comments that the storm clouds he's making have no lightning and tells Poseidon that his master bolt has been stolen. Zeus blames Poseidon's son for the theft and gives Poseidon 14 days to give it back or there will be war. Zeus exit's to Olympus.

Percy Jackson (Logan Lerman) is introducing underwater holding his breath for seven minutes before leaving his disfunctional Yancy Academy and going to his mother, Sally Jackson (Catherine Keener), who lives with Percy's abusive stepdad Gabe Ugliano. The next day during a field trip a Fury disgiused as Percy's subsitute english teacher askes to talk to him. She attacks him questioning his about the bolt. But before she can question him further, Grover Underwood (Brandon T. Jackson) and Percy's Latin teacher, Mr Brunner, arrive and the Fury leaves through a window. Mr Brunner orders Grover to take Percy to Camp Half-Blood and they stop at his mother's to get a car.  
http://www.imdb.com/title/tt0814255/

PLEASE SEED AND ENJOY 

screens 
http://img51.imageshack.us/img51/7364/percyjackh264viceavithu.jpg